<?xml version="1.0" encoding="utf-8"?>
<svg width="142" height="142" viewBox="0 0 142 142" fill="none" xmlns="http://www.w3.org/2000/svg">
  <g>
    <path d="M42.6 0C19.1145 0 0 19.1145 0 42.6C0 60.117 7.90984 68.5594 13.6675 74.7275C17.2952 78.6214 19.88 81.417 19.88 85.2C19.88 85.2 19.88 99.4 19.88 99.4L39.76 99.4L39.76 57.9538C39.76 57.9538 29.1987 47.4813 29.1987 47.4813C28.0894 46.3719 28.0894 44.5081 29.1987 43.3988C30.3081 42.2894 32.1719 42.2894 33.2813 43.3988C33.2813 43.3988 42.6 52.8063 42.6 52.8063C42.6 52.8063 51.9187 43.3988 51.9187 43.3988C53.0281 42.2894 54.8919 42.2894 56.0012 43.3988C57.1106 44.5081 57.1106 46.3719 56.0012 47.4813C56.0012 47.4813 45.44 57.9538 45.44 57.9538L45.44 99.4L65.32 99.4C65.32 99.4 65.32 85.2 65.32 85.2C65.32 79.7641 68.4595 76.4692 72.42 72.3313C78.1222 66.3739 85.2 58.9966 85.2 42.6C85.2 19.1145 66.0855 0 42.6 0ZM19.88 105.08C19.88 105.08 19.88 113.6 19.88 113.6C19.88 118.293 23.7074 122.12 28.4 122.12C28.4 122.12 31.6838 122.12 31.6838 122.12C32.9484 127.012 37.3194 130.64 42.6 130.64C47.8806 130.64 52.2516 127.012 53.5163 122.12C53.5163 122.12 56.8 122.12 56.8 122.12C61.4927 122.12 65.32 118.293 65.32 113.6C65.32 113.6 65.32 105.08 65.32 105.08L19.88 105.08Z" fill="#A8A8A8" transform="translate(28.4 8.52)" />
  </g>
</svg>